<?xml version="1.0" encoding="utf-8"?>
<!-- Generator: Adobe Illustrator 26.0.3, SVG Export Plug-In . SVG Version: 6.00 Build 0)  -->
<svg version="1.1" id="Instagram" xmlns="http://www.w3.org/2000/svg" xmlns:xlink="http://www.w3.org/1999/xlink" x="0px" y="0px"
	 viewBox="0 0 480 270" style="enable-background:new 0 0 480 270;" xml:space="preserve">
<style type="text/css">
	.st0{fill:#F7F7F7;}
</style>
<g>
	<polygon class="st0" points="158.15,57.35 180.86,57.35 180.86,212.65 171.91,212.65 171.91,165.27 154.91,165.27 154.91,229.65 
		197.86,229.65 197.86,40.35 158.15,40.35 	"/>
	<path class="st0" d="M205.97,229.65h17v-69.82h8.95v69.82h17V40.35h-42.95V229.65z M231.92,57.35v85.48h-8.95V57.35H231.92z"/>
	<polygon class="st0" points="257.03,229.65 274.03,229.65 274.03,57.35 282.98,57.35 282.98,229.65 299.98,229.65 299.98,40.35 
		257.03,40.35 	"/>
	<rect x="308.09" y="72.89" class="st0" width="17" height="156.76"/>
	<rect x="308.09" y="40.49" class="st0" width="17" height="22.59"/>
</g>
</svg>
