<svg width="607" height="55" viewBox="0 0 607 55" fill="none" xmlns="http://www.w3.org/2000/svg">
<path fill-rule="evenodd" clip-rule="evenodd" d="M363.133 24.9468C282.382 25.9169 201.592 29.7653 121.194 36.6441C82.9698 39.9152 38.5803 39.5063 1.50783 50.6584C-0.339397 51.2196 0.012401 52.9032 0.0523843 53.0716C0.132351 53.4164 0.468296 54.5628 1.93968 54.6189C2.09961 54.6269 3.22706 54.4666 3.65888 54.4104C14.6063 52.9673 25.5138 51.2838 36.4692 49.9209C74.2934 45.1986 112.23 41.6309 150.222 38.5042C200.649 34.3512 251.507 32.1384 302.07 30.4066C329.747 29.4606 358.087 30.7192 385.851 28.763C396.047 28.7069 406.243 28.699 416.438 28.7311C459.061 28.8834 501.635 30.5029 544.185 32.7237C557.867 33.4373 568.303 34.2069 581.697 34.7281C586.783 34.9285 594.852 35.0648 600.465 35.153C601.289 35.169 603.392 35.1849 604.264 35.1929C604.352 35.209 604.44 35.209 604.536 35.209C604.872 35.209 605.031 35.1849 605.063 35.1849C606.967 34.9043 606.791 33.1004 606.743 32.8279C606.735 32.7717 606.447 31.2484 604.808 31.1923C604.416 31.1763 601.609 31.1604 600.529 31.1443C594.948 31.0561 586.911 30.9198 581.849 30.7274C568.479 30.2063 558.051 29.4366 544.393 28.7231C501.779 26.5023 459.14 24.8748 416.454 24.7225C411.241 24.7064 406.019 24.6984 400.805 24.7064C400.629 24.2494 400.237 23.7363 399.374 23.5118C398.566 23.3034 392.784 23.119 390.553 22.9346C374.04 21.5717 374.528 21.6358 356.359 20.5214C328.843 18.8297 324.653 18.4447 296.033 17.7312C244.046 16.4324 192.036 16.5367 140.042 16.665C114.373 16.7372 86.8881 18.4769 60.827 15.2299C69.4154 14.2197 78.0358 13.4821 86.6402 12.6403C116.02 9.77009 145.424 7.99016 174.923 6.73946C245.686 3.74098 316.56 2.54649 387.298 6.63532C372.241 6.77964 357.191 7.11626 342.133 7.33273C280.839 8.23067 218.953 7.55729 157.786 12.2154C156.691 12.3035 155.867 13.2656 155.947 14.3639C156.027 15.4703 156.995 16.2962 158.09 16.216C219.177 11.5579 280.975 12.2393 342.189 11.3414C364.932 11.0127 387.666 10.4195 410.409 10.5958C418.214 10.66 426.018 10.9486 433.823 11.0449C435.366 11.0689 439.341 11.3736 439.909 11.2453C441.164 10.9647 441.436 10.0346 441.516 9.57762C441.556 9.30503 441.684 7.73364 439.765 7.17242C426.666 3.34014 402.492 3.51652 389.762 2.76289C318.151 -1.48629 246.397 -0.299754 174.755 2.73079C145.184 3.98951 115.708 5.77749 86.2484 8.65571C75.9567 9.65787 65.641 10.5237 55.3893 11.8546C53.734 12.0711 50.0156 12.3838 48.2163 12.7125C47.4646 12.8488 46.9208 13.0411 46.6809 13.1774C45.7453 13.7065 45.5774 14.4762 45.5774 14.9973C45.5694 15.3982 45.7373 16.8092 47.6965 17.1941C77.548 23.0547 110.03 20.7538 140.05 20.6737C192.012 20.5454 243.982 20.441 295.937 21.7398C324.485 22.4534 328.659 22.8304 356.12 24.522C358.83 24.6824 361.125 24.8265 363.133 24.9468Z" fill="#F46036"/>
</svg>
