<?xml version="1.0" encoding="utf-8"?>
<!-- Generator: Adobe Illustrator 26.0.3, SVG Export Plug-In . SVG Version: 6.00 Build 0)  -->
<svg version="1.1" id="Instagram" xmlns="http://www.w3.org/2000/svg" xmlns:xlink="http://www.w3.org/1999/xlink" x="0px" y="0px"
	 viewBox="0 0 480 270" style="enable-background:new 0 0 480 270;" xml:space="preserve">
<style type="text/css">
	.st0{fill:#F7F7F7;}
</style>
<g>
	<path class="st0" d="M320.75,147.94c6.05-4.78,10.59-10.84,11.01-18.83c0.49-9.29-4.82-18.59-14.99-19.13
		c-10.87-0.57-35.1,10.69-35.33,15.07c-0.14,2.72,0.02,5.08,0.69,6.93c0.6,1.65,2.57,2.34,4.08,1.44c1.96-1.16,4.25-2.49,6.72-3.85
		c-1.98,10.05-3.98,25.07-3.87,38.08c0.03,3.51,4.61,3.16,6.96,3.39c2.35,0.23,5.55,0.41,5.75-2.6c0.07-1.06,0.28-4.87,0.7-10.23
		c2.13-0.94,4.34-1.96,6.55-3.06c4.89,7.82,11.91,16.57,19.22,16.15c3.3-0.25,6.62-5.75,5.54-6.71
		C327.21,158.72,323.35,153.65,320.75,147.94z M318.91,120.29c1.52,0.08,2.77,1.23,2.69,2.9c-0.2,3.86-8.22,14.9-17.66,19.92
		c0.76-6.56,1.76-13.64,3.07-20.26C311.38,121.18,315.57,120.11,318.91,120.29z"/>
	<path class="st0" d="M281.45,159.69c-1.53,0-10.92,1.06-10.92,1.06s2.31-18.85,8.18-45.96c0.42-2.56-11.85-3.8-12.36-1.38
		c-3.98,18.96-8.67,44.85-8.67,53.03c0,4.33,3.84,7.51,7.81,6.79c10.07-1.83,15.21-2.24,16.31-2.46c1.76-0.36,3.4-1.05,3.64-2.82
		c0.15-1.12,0.28-2.36,0.28-3.46C285.73,161.45,284.55,159.69,281.45,159.69z"/>
	<path class="st0" d="M261.06,111.84c-0.77-0.23-10.34-1.24-11.6,2.16c-1.26,3.4-6.77,25.39-10.08,39.59
		c-2.33-5.64-5.62-26.48-6.42-29.47c-1.33-4.99-14.39-3.7-15.37-1.36c-0.63,1.5-3.83,14.03-5.84,20.03c0,0-4.05-17.16-6.59-25.17
		c-1.42-4.47-10.78-2.31-12.27-1.35c-1.25,0.8-1.75,2.38-1.16,3.74c4.01,9.24,8.92,43.45,9.81,46.9c0.97,3.8,3.11,4.38,7.2,4.38
		c4.08,0,6.42-1.46,7.68-4.38c0.67-1.53,3.75-10.21,6.53-18.08c1.61,4.73,3.84,11.33,4.94,14.79c1.95,6.13,4.38,7.67,9.04,7.67
		s9.53-0.88,10.21-3.21c0.67-2.29,7.98-30.06,15.11-53.98C262.55,113.15,262.02,112.13,261.06,111.84z"/>
	<path class="st0" d="M182.86,119.71c-3.01-9.63-9.39-9.75-13.72-9.75c-3.13,0-7.46,2.17-7.46,6.02c0,2.2-1.11,16.29-2.55,29.28
		c-2.41,0.08-4.67,0.39-6.63,1.07c-4.67,1.62-5.97,7-6.07,9.48c-0.02,0.44,0.36,0.8,0.8,0.76c1.63-0.14,5.57,0.1,10.41,0.58
		c-0.56,3.83-1.12,7.01-1.66,8.96c-0.21,0.76,0.1,1.56,0.77,1.97c1.11,0.7,3.4,1.43,5.81,1.43c4.25,0,5.85-5.14,6.57-9.11
		c0.07-0.39,0.16-1.03,0.26-1.86c4.56,0.62,9.02,1.32,12.59,2.03c0.71,2.34,1.3,4.17,1.71,5.25c2.65,6.86,5.3,7.9,9.99,7.9
		c2.97,0,4.45-1.62,5.13-2.81c0.36-0.62,0.31-1.39-0.11-1.96C194.52,163.31,185.72,128.85,182.86,119.71z M170.53,146.21
		c0.51-6.34,1.02-13.79,1.33-20.32c1.84,5.8,4.21,14.15,6.39,21.82C175.96,147.23,173.31,146.68,170.53,146.21z"/>
	<path class="st0" d="M138.82,149.33c7.76-5.59,14.02-12.81,14.02-22.57c0-9.31-5.79-18.31-15.98-18.31
		c-10.89,0-31.54,10.47-31.54,14.85c0,2.73,0.28,5.08,1.06,6.89c0.69,1.62,2.69,2.2,4.15,1.23c0.47-0.32,0.96-0.64,1.46-0.96
		c-1.84,7.77-3.4,19.05-3.8,37.78c0,5.54,15.15,4.28,14.57,1.24c-0.46-2.45-0.77-6.1-0.82-10.5c1.77-0.87,3.64-1.81,5.54-2.81
		c4.36,7.19,11.27,16.74,15.78,16.74c3.65,0,9.4-5.28,7.24-7.25C146.53,162.02,142.26,156.22,138.82,149.33z M139.54,118.63
		c1.53,0,2.84,1.08,2.84,2.75c0,4.29-9.13,17.9-19.64,22.39c0.81-7.23,2.3-14.95,4.75-22.07
		C131.68,119.86,135.83,118.63,139.54,118.63z"/>
	<path class="st0" d="M44.75,129.23c-0.59,0.32-1.02,0.87-1.18,1.53c-0.16,0.65-0.04,1.35,0.34,1.9c1.25,1.84,3.48,4.04,7.05,4.04
		c5.85,0,26.97-21.45,26.97-29.29c0-7.64-9.09-11.8-13.77-11.8c-7.23,0-22.06,10.64-33.52,20.6c-11.19,9.72-23.23,22.32-23.23,27.01
		c0,8.23,7.47,9.36,15.55,9.36c2.73,0,6.02-0.2,9.5-0.42c6.96-0.43,14.85-0.91,16.45,0.59c0.16,0.15,0.24,0.32,0.24,0.51
		c0,3.49-5.55,8.35-14.6,8.35c-5.39,0-8.64-1.17-10.42-2.15c-0.56-0.31-1.21-0.29-1.75,0.04c-0.54,0.33-0.85,0.9-0.83,1.53
		c0.12,3.78,1.78,12.59,14.43,12.59c16.49,0,26.61-11.24,26.61-19.3c0-7.38-8.26-12.34-20.55-12.34c-4.61,0-8.49,0.35-11.61,0.64
		c-3.28,0.3-5.87,0.53-6.46,0c-0.07-0.06-0.1-0.14-0.1-0.24c0-1.41,6.21-8.51,16.24-17.53c10.07-9.06,18.39-14.91,21.19-14.91
		c0.91,0,1.01,0.37,1.04,0.52C63.07,113.28,51.55,125.56,44.75,129.23z"/>
	<path class="st0" d="M99.73,152.55c-1.95,2.62-6.66,8.44-12.4,8.44c-2.51,0-6.44-2.93-6.44-9.93c0-14.13,6.26-27.63,10.29-27.46
		c0,0,0,0,0,0.01c-0.12,0.54-0.22,1.08-0.31,1.62c-1.53,9.96,0.84,14,4.73,14.6c2.5,0.38,4.21-0.66,4.92-1.23
		c0.22-0.17,0.3-0.46,0.21-0.73c-0.22-0.63-0.54-2.04-0.19-4.26c1.57-10.19,6.65-18.3,6.88-19.8c0.22-1.42-2.5-3.68-7.15-4.4
		c-1.17-0.18-3.05,1.51-4.85,4.2c-0.86-0.19-1.78-0.3-2.79-0.3c-14.22,0-25.07,18.83-25.07,39.01c0,9.44,4.17,20.78,16.14,20.78
		c8.55,0,14.33-4.99,17.3-8.43c2.39-2.78,3.43-8.56,0.83-11.15C100.9,152.58,100,152.19,99.73,152.55z"/>
	<path class="st0" d="M420.47,116.99c-7.51,0.01-11.8,9.58-13.34,10.19c-2.12,0.84-3.62,3.98-4.42,6.14
		c-1.29,3.49-1.95,6.41-2.32,9.38c-6.69,0.73-7.02,2.48-3.16-3.28c4.55-6.77,1.56-12.29-2.88-12.98
		c-9.31-1.42-15.06,0.95-23.47,3.09c-7.7,1.98,25.8-19.32,13.93-28.16c-11.34-8.41-44.22,10.38-46.66,16.61
		c-0.35,0.85,0.63,2.35,1.76,1.83c3.37-1.57,18.98-15.2,35.43-16.51c15.73-1.29,0.34,13-11.19,23.6c-3.39,1.87-0.99-1.32,4.32-14.52
		c1.15-2.95-1.99-3.6-2.25-3.79c-3.42-2.21-10.52,25.57-13.51,27.93c-6.39,4.97-6.71,5.27-5.8,7.3c0.71,1.68,1.47,1.21,3.65,1.66
		c-3.93,13.18-2.69,12.94-5.15,14.35c-2.01,1.18-4.58,3.09-5.72,5.12c-1.26,2.23,0.09,5.08,2.5,5.57c3.26,0.69,2.88,0.6,3.27,1.88
		c0.52,1.74,2.85,2.89,3.91,1.05c0.44-0.76,0.48-1.66,0.6-2.63c3.31-0.89,4.86-0.98,7.15-1.71c25.02-7.96,29.12-20.54,36.79-22.07
		c2.28-0.46,4.34-0.82,6.17-1.12c-0.13,2.02-0.2,4.17-0.28,6.61c-1.3,36.61,28.86,19.22,30.18-18.29
		C429.49,126.98,428.1,116.98,420.47,116.99z M351.17,164.55c-0.06-1.65,0.65-2.68,2.24-3.34c2.38-0.99,4.61-2.31,6.99-3.28
		c1.42-0.58,16.73-6.72,18.27-6.58C370.92,159.17,351.28,167.18,351.17,164.55z M393.18,135.63c-7.71,15.14-12.5,7.47-36.95,18.62
		c-1.25,0.59-1.71,0.78-2.96,1c0.59-2.96-0.01-1.04,2.08-7.91c1.6-5.31,1.56-6.24,3.36-7.16
		C371.06,133.87,399.03,123.96,393.18,135.63z M407.33,156.84c-0.32-4.05-0.04-8.15,0.66-12.04c2.52-0.33,3.8-0.54,3.91-0.98
		c-1.07-0.81-1.91-1.15-2.95-1.21c-0.18-0.01-0.35-0.02-0.52-0.03c4.01-17.89,16.48-29.81,18.07-7.11
		C425.71,162.54,408.92,176.97,407.33,156.84z"/>
	<path class="st0" d="M464.07,119.86c-16.71,17.2-13.35,15.64-16.58,18.51c-3.77-7.29-6.56-16.81-8.78-20.09
		c-1.66-2.45-5.6-0.97-5.4,1.78c0.22,3.08,1.88,7.58,3.01,10.44c10.12,25.57,8.8,2.98-7.31,36.83c-1.45,3.05,0.07,4.93,1.99,4.14
		c3.53-1.44,10.08-12.99,15.34-20.55c3.45,5.06,7.69,12.37,13.93,15.56c1.42,0.72,2.75,1.3,4,0.71c3.62-1.67-5.48-5.05-13.38-22.12
		c3.49-5.74,19.84-22.86,21.34-25.57C473.59,117.08,471.01,112.72,464.07,119.86z"/>
</g>
</svg>
