<?xml version="1.0" encoding="utf-8"?>
<!-- Generator: Adobe Illustrator 26.0.3, SVG Export Plug-In . SVG Version: 6.00 Build 0)  -->
<svg version="1.1" id="Instagram" xmlns="http://www.w3.org/2000/svg" xmlns:xlink="http://www.w3.org/1999/xlink" x="0px" y="0px"
	 viewBox="0 0 480 270" style="enable-background:new 0 0 480 270;" xml:space="preserve">
<style type="text/css">
	.st0{fill:#F7F7F7;}
</style>
<g>
	<path class="st0" d="M427.29,233.7c7.13,0,12.86-5.72,12.86-12.76c0-7.03-5.78-12.76-12.86-12.76c-7.08,0-12.86,5.72-12.86,12.76
		C414.38,228.03,420.16,233.7,427.29,233.7z M203.06,61.35c7.13,0,12.86-5.72,12.86-12.76s-5.78-12.76-12.86-12.76
		c-7.13,0-12.86,5.72-12.86,12.76C190.16,55.68,195.93,61.35,203.06,61.35z"/>
	<path class="st0" d="M156.16,141.8l-21.24-30.38v30.38h-21.95V71.9h22v29.53l21.84-29.38h26.01l-26.77,33.04l27.17,36.71H156.16z
		 M214.06,71.9h-22v69.85h22V71.9z M191.66,197.4c0-20.84,12.86-36.71,33.09-36.71c10.14,0,18.08,4.77,21.84,11.85v-9.99h22v69.7
		h-22v-9.84c-3.77,6.93-12.45,11.7-22.1,11.7C203.67,234.16,191.66,218.39,191.66,197.4z M247.46,197.4
		c0-9.99-5.62-18.23-16.62-18.23c-10.24,0-16.62,7.68-16.62,18.23c0,10.55,6.38,18.38,16.62,18.38
		C241.83,215.78,247.46,207.54,247.46,197.4z M281.51,162.59h22.1v14.61c2.46-10.4,10.7-15.77,19.23-15.77
		c2.61,0,4.07,0.15,5.78,0.6l-0.1,20.54c-2.61-0.3-3.82-0.45-6.53-0.45c-12,0-18.38,7.78-18.38,23.25v26.92h-22.1L281.51,162.59
		L281.51,162.59z M333.13,197.4c0-22.85,14.91-36.71,37.56-36.71c21.69,0,36.46,13.46,36.46,33.09c0,3.62-0.15,5.78-0.6,9.69h-51.47
		c0.45,9.09,6.53,14.01,16.32,14.01c6.78,0,11.15-1.86,13.01-6.23h21.69c-2.16,13.71-16.17,22.85-34.7,22.85
		C347.74,234.16,333.13,220.7,333.13,197.4z M385.31,189.76c-0.15-9.24-5.32-14.16-14.76-14.16c-9.54,0-15.32,5.62-15.47,14.16
		H385.31z M248.96,121.06V71.95h-22.1v49.87v20.04h22.1h31.54v-20.74h-31.54V121.06z M314.6,121.06V71.95h-22.1v49.87v20.04h22.1
		h31.54v-20.74H314.6V121.06z M161.13,162.54v25.11h-26.52v-25.11h-21.64v25.11v20.04v24.76h21.69v-24.76h26.52v24.76h21.69v-24.76
		v-20.04v-25.11H161.13z M85.65,190.87l-13.51-3.72c-4.57-1.36-6.13-3.36-6.13-6.18c0-3.11,2.41-4.92,5.57-5.27
		c4.57-0.55,8.09,1.46,8.09,6.38v0.3h23.25v-0.3l0,0c0-13.91-11.75-21.59-31.44-21.59c-17.93,0-29.78,8.69-29.78,21.9
		c0,10.6,6.38,17.68,17.48,20.44l13.96,3.52c4.12,1.31,5.83,3.31,5.78,6.53c0,3.47-3.52,5.47-7.08,5.62
		c-5.17,0.25-8.94-2.56-9.24-7.03H39.86c0.35,13.31,13.36,22.7,32.89,22.7c18.48,0,30.48-8.54,30.48-23.05
		C103.28,200.46,96.65,193.78,85.65,190.87z M85.65,100.42l-13.51-3.72c-4.57-1.36-6.13-3.36-6.13-6.18c0-3.11,2.41-4.92,5.57-5.27
		c4.57-0.55,8.09,1.46,8.09,6.38v0.3h23.25v-0.3l0,0c0-13.91-11.75-21.59-31.44-21.59c-17.93,0-29.78,8.69-29.78,21.9
		c0,10.6,6.38,17.68,17.48,20.44l13.96,3.52c4.12,1.31,5.83,3.31,5.78,6.53c0,3.47-3.52,5.47-7.08,5.62
		c-5.17,0.25-8.94-2.56-9.24-7.03H39.86c0.35,13.31,13.36,22.7,32.89,22.7c18.48,0,30.48-8.54,30.48-23.05
		C103.28,109.97,96.65,103.34,85.65,100.42z"/>
</g>
</svg>
